PathFileType	4	(x/y/z)	S06_M20_T24
DataRate	CameraRate	NumFrames	NumMarkers	Units	OrigDataRate	OrigDataStartFrame	OrigNumFrames
240	240	5	51	mm	240	61	481
Frame#	Time	Sternum			R.Acromium			L.Acromium			Top.Head			R.ASIS			L.ASIS			R.PSIS			L.PSIS			R.Great.Tro			L.Great.Tro			R.Iliac.Crest			L.Iliac.Crest			V.Sacral			R.Thigh.Upper.Post			R.Thigh.Lower.Ant			R.Thigh.Lower.Post			R.Thigh.Upper.Ant			R.Knee.Lat			R.Knee.Med			R.Shank.Upper.Post			R.Shank.Lower.Ant			R.Shank.Lower.Post			R.Shank.Upper.Ant			R.Ankle.Lat			R.Ankle.Med			R.Heel.Upper			R.Heel.Med			R.Heel.Lat			R.Toe.Lat			R.Toe.Med			R.Toe.Tip			L.Thigh.Upper.Post			L.Thigh.Lower.Ant			L.Thigh.Lower.Post			L.Thigh.Upper.Ant			L.Knee.Lat			L.Knee.Med			L.Shank.Upper.Post			L.Shank.Lower.Ant			L.Shank.Lower.Post			L.Shank.Upper.Ant			L.Ankle.Lat			L.Ankle.Med			L.Heel.Upper			L.Heel.Med			L.Heel.Lat			L.Toe.Lat			L.Toe.Med			L.Toe.Tip			Cervical.Spine			Back			
		X1	Y1	Z1	X2	Y2	Z2	X3	Y3	Z3	X4	Y4	Z4	X5	Y5	Z5	X6	Y6	Z6	X7	Y7	Z7	X8	Y8	Z8	X9	Y9	Z9	X10	Y10	Z10	X11	Y11	Z11	X12	Y12	Z12	X13	Y13	Z13	X14	Y14	Z14	X15	Y15	Z15	X16	Y16	Z16	X17	Y17	Z17	X18	Y18	Z18	X19	Y19	Z19	X20	Y20	Z20	X21	Y21	Z21	X22	Y22	Z22	X23	Y23	Z23	X24	Y24	Z24	X25	Y25	Z25	X26	Y26	Z26	X27	Y27	Z27	X28	Y28	Z28	X29	Y29	Z29	X30	Y30	Z30	X31	Y31	Z31	X32	Y32	Z32	X33	Y33	Z33	X34	Y34	Z34	X35	Y35	Z35	X36	Y36	Z36	X37	Y37	Z37	X38	Y38	Z38	X39	Y39	Z39	X40	Y40	Z40	X41	Y41	Z41	X42	Y42	Z42	X43	Y43	Z43	X44	Y44	Z44	X45	Y45	Z45	X46	Y46	Z46	X47	Y47	Z47	X48	Y48	Z48	X49	Y49	Z49	X50	Y50	Z50	X51	Y51	Z51	

61	0.25	-1217.3	1289.8	281.97	-1354.8	1493.9	445.01	-1370.4	1486	94.857	-1315.6	1807.2	261.26	NaN	NaN	NaN	NaN	NaN	NaN	-1446.5	1061.2	303	-1445.7	1066.3	223.3	-1319.4	970.04	454.02	-1323.5	976.36	96.851	-1351.2	1121.7	437.33	-1311.9	1120.7	115.19	-1460.2	1029.6	266.01	-1316.1	723.61	466.97	-1249.1	642.04	455.72	-1322.8	634.32	456.91	-1244	733.09	461.41	-1311.2	527.36	456.64	-1277.3	516.03	331.62	-1510.7	419.47	442.57	-1534.6	335.4	422.38	-1568.9	375.7	422.06	-1459.3	373.9	440.93	-1655.7	278.43	395.94	-1628.7	262.07	312.75	-1701.2	315.53	339.63	-1718.2	297.78	306.67	-1729.4	300.33	370.1	-1692.3	128.19	417.76	-1656.2	107.07	305.83	NaN	NaN	NaN	-1213.8	724.06	127.83	-1158.9	656.31	195.5	-1220.6	636.21	150.86	-1157.9	747.87	167.8	-1222.4	541.99	169.17	-1203.2	555.8	288.96	-1255.1	312.07	186.74	-1187	254.46	194.86	-1257.4	240.77	206.21	-1188.6	324.15	180.59	-1204.2	106.61	214.37	-1200	128.48	303.13	-1284.8	73.229	259.53	-1281.4	46.815	291.17	-1278.6	48.764	229.61	-1098	46.433	195.88	-1081.1	44.009	315.85	-1007.6	57.932	262.68	-1421.4	1542.6	271	-1464.4	1266.2	276.27
62	0.25417	-1212.9	1290.3	281.99	-1349.8	1494.3	444.94	-1364.8	1486.7	94.728	-1310.1	1807.8	261.25	NaN	NaN	NaN	NaN	NaN	NaN	-1441.5	1061.7	302.51	-1440.7	1066.9	222.82	-1314.2	970.77	453.77	-1318.2	976.95	96.612	-1346.4	1122.3	436.97	-1307.3	1121.6	115	-1455.2	1030.3	265.5	-1307.1	724.37	467.1	-1239.9	643.41	455.47	-1313.2	635.02	457.18	-1235.6	734.56	461	-1300.7	528.24	456.78	-1267.4	517.17	331.49	-1499.9	420.06	443.14	-1523.9	336.07	422.86	-1558.1	376.18	422.81	-1448.5	374.64	441.26	-1645	278.94	396.57	-1618	262.45	313.57	-1691.7	315.06	340.08	-1708.4	296.63	307.3	-1719.2	299.61	370.75	-1679.3	128.59	419.61	-1643.1	107.1	307.79	-1610.6	53.394	356.27	-1210.5	724.27	127.67	-1155.8	656.16	195.18	-1217.8	636.44	150.64	-1154.3	747.72	167.46	-1220.1	542.16	169.09	-1200.5	555.87	288.84	-1254.1	312.31	186.89	-1186.3	254.38	194.82	-1256.7	241.05	206.41	-1187.5	324.05	180.49	-1203.9	106.72	214.48	-1199.7	128.53	303.22	-1284.8	73.331	259.6	-1281.4	46.867	291.22	-1278.5	48.912	229.65	-1098	46.473	195.9	-1081	43.751	315.93	-1007.5	57.521	262.73	-1416.2	1543.4	270.86	-1459.4	1267	275.79
63	0.25833	-1208.4	1290.9	282.02	-1344.9	1494.9	444.87	-1359.2	1487.4	94.6	-1304.7	1808.4	261.27	NaN	NaN	NaN	NaN	NaN	NaN	-1436.6	1062.3	302.05	-1435.7	1067.6	222.38	-1308.9	971.51	453.53	-1312.9	977.53	96.376	-1341.7	1122.9	436.64	-1302.7	1122.4	114.81	-1450.3	1030.9	265.02	-1298.2	725.18	467.23	-1230.8	644.85	455.16	-1303.6	635.79	457.43	-1227.2	736.07	460.57	-1290.2	529.18	456.88	-1257.6	518.37	331.32	-1489.1	420.58	443.64	-1512.9	336.64	423.33	-1547.2	376.53	423.5	-1437.6	375.34	441.57	-1634.2	279.24	397.19	-1607.2	262.67	314.39	-1682.1	314.34	340.56	-1698.4	295.23	307.96	-1708.9	298.59	371.42	-1666.1	128.79	421.41	-1629.7	106.98	309.69	-1597.5	53.696	358.02	-1207.2	724.48	127.51	-1152.8	656	194.83	-1215	636.69	150.41	-1150.7	747.56	167.12	-1217.9	542.33	169	-1198	555.93	288.69	-1253.1	312.55	187	-1185.6	254.31	194.74	-1256.1	241.34	206.57	-1186.5	323.95	180.37	-1203.6	106.84	214.57	-1199.4	128.6	303.26	-1284.7	73.428	259.66	-1281.3	46.922	291.26	-1278.5	49.053	229.67	-1097.9	46.507	195.9	-1080.9	43.541	315.99	-1007.4	57.161	262.76	-1410.9	1544.1	270.72	-1454.4	1267.7	275.32
64	0.2625	-1203.8	1291.4	282.04	-1340	1495.4	444.8	-1353.5	1488.1	94.475	-1299.2	1809.1	261.31	NaN	NaN	NaN	NaN	NaN	NaN	-1431.6	1062.9	301.62	-1430.8	1068.3	221.96	-1303.7	972.25	453.31	-1307.6	978.11	96.143	-1337	1123.5	436.32	-1297.9	1123.2	114.61	-1445.4	1031.5	264.56	-1289.4	726.04	467.35	-1221.8	646.34	454.81	-1294	636.61	457.65	-1218.8	737.63	460.11	-1279.8	530.18	456.94	-1247.8	519.63	331.12	-1478.2	421.02	444.09	-1501.8	337.1	423.77	-1536.3	376.74	424.15	-1426.6	376.01	441.84	-1623.2	279.33	397.81	-1596.3	262.71	315.2	-1672.4	313.37	341.09	-1688.4	293.57	308.66	-1698.6	297.28	372.13	-1652.6	128.78	423.15	-1616	106.73	311.52	-1583.9	53.97	359.79	-1204	724.71	127.33	-1149.9	655.84	194.48	-1212.4	636.95	150.16	-1147.2	747.41	166.77	-1215.8	542.5	168.88	-1195.5	556	288.53	-1252.2	312.79	187.06	-1185	254.26	194.64	-1255.4	241.63	206.68	-1185.5	323.86	180.22	-1203.3	106.95	214.62	-1199.1	128.69	303.28	-1284.7	73.522	259.7	-1281.3	46.977	291.29	-1278.4	49.187	229.69	-1097.9	46.533	195.9	-1080.8	43.375	316.03	-1007.3	56.846	262.77	-1405.7	1544.8	270.59	-1449.4	1268.5	274.84
65	0.26667	-1199	1292	282.06	-1335.1	1495.9	444.73	-1347.8	1488.8	94.351	-1293.7	1809.7	261.37	NaN	NaN	NaN	NaN	NaN	NaN	-1426.6	1063.5	301.22	-1425.9	1069	221.58	-1298.4	973	453.09	-1302.2	978.71	95.915	-1332.2	1124.1	436.02	-1293	1124.1	114.41	-1440.4	1032.2	264.13	-1280.5	726.94	467.45	-1212.8	647.87	454.39	-1284.5	637.48	457.84	-1210.5	739.23	459.63	-1269.5	531.23	456.96	-1238.1	520.93	330.9	-1467.3	421.38	444.48	-1490.5	337.45	424.19	-1525.2	376.81	424.76	-1415.6	376.63	442.08	-1612.1	279.19	398.44	-1585.2	262.57	316	-1662.5	312.15	341.66	-1678.2	291.68	309.4	-1688.2	295.69	372.88	-1638.9	128.58	424.85	-1602.2	106.34	313.29	-1569.8	54.205	361.57	-1200.9	724.96	127.15	-1147.1	655.68	194.11	-1209.8	637.22	149.89	-1143.8	747.26	166.42	-1213.8	542.68	168.74	-1193.1	556.06	288.36	-1251.3	313.02	187.07	-1184.3	254.22	194.51	-1254.8	241.91	206.74	-1184.5	323.78	180.04	-1203.1	107.06	214.66	-1198.9	128.78	303.26	-1284.6	73.614	259.74	-1281.2	47.034	291.31	-1278.3	49.315	229.69	-1097.9	46.55	195.89	-1080.7	43.251	316.04	-1007.2	56.568	262.76	-1400.5	1545.5	270.46	-1444.4	1269.2	274.37
